<svg width="24" height="22" viewBox="0 0 24 22" fill="none" xmlns="http://www.w3.org/2000/svg">
<path d="M3.26337 21.0956C3.26337 21.0956 3.24205 21.6321 3.7661 21.6321C4.41807 21.6321 9.81584 21.625 9.81584 21.625L9.82473 16.6677C9.82473 16.6677 9.73946 15.8506 10.5326 15.8506H13.0428C13.9808 15.8506 13.923 16.6677 13.923 16.6677L13.9124 21.609C13.9124 21.609 19.0304 21.609 19.8342 21.609C20.4995 21.609 20.4693 20.941 20.4693 20.941V11.802L12.1235 4.37817L3.26337 11.802V21.0956Z" fill="white"/>
<path d="M0 11.1111C0 11.1111 0.752332 12.4976 2.39289 11.1111L12.1972 2.81677L21.3895 11.0596C23.2885 12.4292 24 11.0596 24 11.0596L12.1972 0.36792L0 11.1111Z" fill="white"/>
<path d="M21.1665 2.79712H18.8021L18.8119 5.66433L21.1665 7.66196V2.79712Z" fill="white"/>
</svg>
