<svg width="24" height="20" viewBox="0 0 24 20" fill="none" xmlns="http://www.w3.org/2000/svg">
<path d="M23.4124 0.987563C23.0207 0.595937 22.55 0.400146 22.0001 0.400146H1.99999C1.45 0.400146 0.979306 0.595894 0.587417 0.987563C0.195747 1.37928 0 1.84997 0 2.4V17.5998C0 18.1499 0.195747 18.6207 0.587417 19.0123C0.979306 19.404 1.45 19.5998 1.99999 19.5998H22.0001C22.55 19.5998 23.0207 19.404 23.4124 19.0123C23.804 18.6207 24 18.15 24 17.5998V2.4C24 1.84997 23.804 1.37928 23.4124 0.987563ZM22.3998 17.6001C22.3998 17.7086 22.3603 17.802 22.2811 17.8815C22.202 17.9603 22.1082 17.9998 22.0001 17.9998H1.99999C1.89171 17.9998 1.79793 17.9603 1.71878 17.8811C1.63966 17.8018 1.60004 17.7083 1.60004 17.5998V9.99999H22.3999V17.6001H22.3998ZM22.3998 5.19983H1.6V2.39982C1.6 2.29151 1.63949 2.19795 1.71873 2.11862C1.79793 2.03968 1.89171 2.00005 1.99994 2.00005H22C22.1082 2.00005 22.202 2.0395 22.2811 2.11862C22.3602 2.19795 22.3998 2.29151 22.3998 2.39982V5.19983H22.3998Z" fill="white"/>
<path d="M6.40003 14.7998H3.20007V16.3999H6.40003V14.7998Z" fill="white"/>
<path d="M12.8001 14.7998H8.00012V16.3999H12.8001V14.7998Z" fill="white"/>
</svg>
