<svg width="42" height="42" viewBox="0 0 42 42" fill="none" xmlns="http://www.w3.org/2000/svg">
<path d="M6.04712 6.76387V17.442C6.04712 17.8686 6.39295 18.2142 6.81929 18.2142H17.4977C17.924 18.2142 18.2698 17.8686 18.2698 17.442V15.4173C18.2698 14.9907 17.924 14.6451 17.4977 14.6451C17.0713 14.6451 16.7258 14.9907 16.7258 15.4173V16.6701H7.59145V7.53579H16.7258V9.39472C16.7258 9.8213 17.0713 10.1671 17.4977 10.1671C17.924 10.1671 18.2698 9.8213 18.2698 9.39472V6.76387C18.2698 6.33729 17.924 5.9917 17.4977 5.9917H6.81929C6.39295 5.9917 6.04712 6.33729 6.04712 6.76387Z" fill="#343B71"/>
<path d="M10.5568 9.72925C10.1302 9.72925 9.78485 10.0748 9.78485 10.5012V13.7047C9.78485 14.1311 10.1302 14.4769 10.5568 14.4769H13.7603C14.1867 14.4769 14.5325 14.1311 14.5325 13.7047V10.5012C14.5325 10.0748 14.1867 9.72925 13.7603 9.72925H10.5568ZM12.9884 12.9328H11.3289V11.2733H12.9884V12.9328Z" fill="#343B71"/>
<path d="M17.4977 23.7283H6.81929C6.39295 23.7283 6.04712 24.0739 6.04712 24.5002V35.1788C6.04712 35.6052 6.39295 35.9508 6.81929 35.9508H17.4977C17.924 35.9508 18.2698 35.6052 18.2698 35.1788V24.5002C18.2698 24.0739 17.924 23.7283 17.4977 23.7283ZM16.7258 34.4067H7.59145V25.2724H16.7258V34.4067Z" fill="#343B71"/>
<path d="M24.6094 18.2142H35.288C35.7141 18.2142 36.0599 17.8686 36.0599 17.442V6.76387C36.0599 6.33729 35.7141 5.9917 35.288 5.9917H24.6094C24.183 5.9917 23.8372 6.33729 23.8372 6.76387V17.442C23.8372 17.8686 24.183 18.2142 24.6094 18.2142ZM25.3813 7.53579H34.5156V16.6701H25.3813V7.53579Z" fill="#343B71"/>
<path d="M36.0599 35.1788V24.5002C36.0599 24.0739 35.7141 23.7283 35.288 23.7283H24.6094C24.183 23.7283 23.8372 24.0739 23.8372 24.5002V35.1788C23.8372 35.6052 24.183 35.9508 24.6094 35.9508H35.288C35.7141 35.9508 36.0599 35.6052 36.0599 35.1788ZM34.5156 34.4067H25.3813V25.2724H34.5156V34.4067Z" fill="#343B71"/>
<path d="M35.288 21.7901C35.7141 21.7901 36.06 21.4443 36.06 21.0179C36.06 20.5914 35.7141 20.246 35.288 20.246H21.7509V6.67842C21.7509 6.25208 21.4051 5.90625 20.979 5.90625C20.5522 5.90625 20.2066 6.25208 20.2066 6.67842V20.246H9.95863C9.53254 20.246 9.18671 20.5916 9.18671 21.0179C9.18671 21.4445 9.53254 21.7901 9.95863 21.7901H20.2066V35.1789C20.2066 35.6052 20.5522 35.9508 20.979 35.9508C21.4051 35.9508 21.7509 35.6052 21.7509 35.1789V21.7901H35.288Z" fill="#343B71"/>
<path d="M10.5568 32.2708H13.7603C14.1867 32.2708 14.5325 31.925 14.5325 31.4987V28.2951C14.5325 27.8685 14.1867 27.5232 13.7603 27.5232H10.5568C10.1302 27.5232 9.78485 27.8685 9.78485 28.2951V31.4987C9.78485 31.925 10.1302 32.2708 10.5568 32.2708ZM11.3289 29.0673H12.9884V30.7267H11.3289V29.0673Z" fill="#343B71"/>
<path d="M31.5502 9.72925H28.3467C27.9204 9.72925 27.5745 10.0748 27.5745 10.5012V13.7047C27.5745 14.1311 27.9204 14.4769 28.3467 14.4769H31.5502C31.9768 14.4769 32.3224 14.1311 32.3224 13.7047V10.5012C32.3224 10.0748 31.9768 9.72925 31.5502 9.72925ZM30.7781 12.9328H29.1191V11.2733H30.7781V12.9328Z" fill="#343B71"/>
<path d="M28.3467 32.2708H31.5502C31.9768 32.2708 32.3224 31.925 32.3224 31.4987V28.2951C32.3224 27.8685 31.9768 27.5232 31.5502 27.5232H28.3467C27.9204 27.5232 27.5745 27.8685 27.5745 28.2951V31.4987C27.5745 31.925 27.9204 32.2708 28.3467 32.2708ZM29.1191 29.0673H30.7781V30.7267H29.1191V29.0673Z" fill="#343B71"/>
<path d="M6.66302 20.2492L6.62145 20.2588C6.2064 20.3569 5.94926 20.7726 6.04707 21.1877C6.13094 21.5431 6.44793 21.783 6.79784 21.783C6.85672 21.783 6.91609 21.776 6.97569 21.7618L7.01702 21.7522C7.4323 21.6544 7.68945 21.2386 7.5914 20.8236C7.49383 20.4088 7.07806 20.1516 6.66302 20.2492Z" fill="#343B71"/>
<path d="M17.3421 11.6355L17.3006 11.6454C16.8855 11.7427 16.6281 12.1582 16.7255 12.5735C16.8086 12.9294 17.1258 13.1695 17.4765 13.1695C17.5346 13.1695 17.5938 13.1628 17.6534 13.1486L17.6947 13.139C18.11 13.0417 18.3674 12.6259 18.27 12.2111C18.1727 11.7961 17.7569 11.5382 17.3421 11.6355Z" fill="#343B71"/>
<path d="M2.06392 7.65718C2.49074 7.65718 2.83609 7.31159 2.83609 6.88525V2.8771H6.69836C7.12494 2.8771 7.47077 2.53175 7.47077 2.10517C7.47077 1.67884 7.12494 1.33301 6.69836 1.33301H2.06392C1.63782 1.33301 1.29199 1.67884 1.29199 2.10517V6.88525C1.29199 7.31159 1.63782 7.65718 2.06392 7.65718Z" fill="#343B71"/>
<path d="M39.8951 1.33301H35.2606C34.834 1.33301 34.4882 1.67884 34.4882 2.10517C34.4882 2.53175 34.834 2.8771 35.2606 2.8771H39.1229V6.88525C39.1229 7.31159 39.4683 7.65718 39.8951 7.65718C40.3212 7.65718 40.667 7.31159 40.667 6.88525V2.10517C40.667 1.67884 40.3212 1.33301 39.8951 1.33301Z" fill="#343B71"/>
<path d="M6.69836 39.1307H2.83609V35.1228C2.83609 34.6967 2.49074 34.3508 2.06392 34.3508C1.63782 34.3508 1.29199 34.6967 1.29199 35.1228V39.9028C1.29199 40.3292 1.63782 40.675 2.06392 40.675H6.69836C7.12494 40.675 7.47077 40.3292 7.47077 39.9028C7.47077 39.4763 7.12494 39.1307 6.69836 39.1307Z" fill="#343B71"/>
<path d="M39.8951 34.3508C39.4683 34.3508 39.1229 34.6967 39.1229 35.1228V39.1307H35.2606C34.834 39.1307 34.4882 39.4763 34.4882 39.9028C34.4882 40.3292 34.834 40.675 35.2606 40.675H39.8951C40.3212 40.675 40.667 40.3292 40.667 39.9028V35.1228C40.667 34.6967 40.3212 34.3508 39.8951 34.3508Z" fill="#343B71"/>
</svg>
