<svg width="24" height="24" viewBox="0 0 24 24" fill="none" xmlns="http://www.w3.org/2000/svg">
<path d="M16 18.2223V20.0001H0.444444C0.198667 20.0001 0 20.1992 0 20.4445C0 20.6898 0.198667 20.8889 0.444444 20.8889H16V22.6667C16 22.9121 16.1987 23.1112 16.4444 23.1112H21.7778C22.0236 23.1112 22.2222 22.9121 22.2222 22.6667V20.8889H23.5556C23.8013 20.8889 24 20.6898 24 20.4445C24 20.1992 23.8013 20.0001 23.5556 20.0001H22.2222V18.2223C22.2222 17.9769 22.0236 17.7778 21.7778 17.7778H16.4444C16.1987 17.7778 16 17.9769 16 18.2223Z" fill="white"/>
<path d="M8.88889 9.7777V11.5555H0.444444C0.198667 11.5555 0 11.7546 0 11.9999C0 12.2453 0.198667 12.4444 0.444444 12.4444H8.88889V14.2221C8.88889 14.4675 9.08756 14.6666 9.33333 14.6666H14.6667C14.9124 14.6666 15.1111 14.4675 15.1111 14.2221V12.4444H23.5556C23.8013 12.4444 24 12.2453 24 11.9999C24 11.7546 23.8013 11.5555 23.5556 11.5555H15.1111V9.7777C15.1111 9.53236 14.9124 9.33325 14.6667 9.33325H9.33333C9.08756 9.33325 8.88889 9.53236 8.88889 9.7777Z" fill="white"/>
<path d="M1.77778 1.33336V3.11114H0.444444C0.198667 3.11114 0 3.31025 0 3.55558C0 3.80092 0.198667 4.00003 0.444444 4.00003H1.77778V5.7778C1.77778 6.02314 1.97644 6.22225 2.22222 6.22225H7.55556C7.80133 6.22225 8 6.02314 8 5.7778V4.00003H23.5556C23.8013 4.00003 24 3.80092 24 3.55558C24 3.31025 23.8013 3.11114 23.5556 3.11114H8V1.33336C8 1.08803 7.80133 0.888916 7.55556 0.888916H2.22222C1.97644 0.888916 1.77778 1.08803 1.77778 1.33336Z" fill="white"/>
</svg>
