<svg width="17" height="14" viewBox="0 0 17 14" fill="none" xmlns="http://www.w3.org/2000/svg">
<path d="M16.703 6.29045L10.6432 0.310375C10.2525 -0.076344 9.62061 -0.0713284 9.23389 0.320359C8.84717 0.712047 8.85115 1.34294 9.24387 1.72966L13.5744 6.00339H1.97009C1.41893 6.00339 0.973434 6.44889 0.973434 7.00005C0.973434 7.5512 1.41893 7.99675 1.97009 7.99675H13.5744L9.24387 12.2705C8.8512 12.6572 8.8482 13.2881 9.23389 13.6798C9.42922 13.8771 9.68637 13.9768 9.94353 13.9768C10.1967 13.9768 10.4498 13.8811 10.6432 13.6897L16.703 7.70964C16.8924 7.52228 17 7.26709 17 7C17 6.733 16.8934 6.47884 16.703 6.29045Z" fill="white"/>
</svg>
