<svg width="24" height="24" viewBox="0 0 24 24" fill="none" xmlns="http://www.w3.org/2000/svg">
<rect width="24" height="24" rx="4" fill="white"/>
<path d="M5.49492 12.4982C5.21917 12.4982 5 12.272 5 11.9964C5 11.7208 5.21917 11.5018 5.49492 11.5018H11.4977V5.50178C11.4982 5.22618 11.7245 5 12.0002 5C12.276 5 12.4951 5.22618 12.4951 5.50178V11.5018H18.4979C18.7737 11.5018 19 11.7208 19 11.9964C19 12.272 18.7737 12.4982 18.4979 12.4982H12.4951V18.4982C12.4951 18.7738 12.276 19 12.0002 19C11.7245 19 11.4982 18.7738 11.4982 18.4982V12.4982H5.49492Z" fill="#343B71"/>
</svg>
