<svg width="24" height="24" viewBox="0 0 24 24" fill="none" xmlns="http://www.w3.org/2000/svg">
<path d="M23.4546 1.63615C23.7558 1.33495 23.7558 0.846592 23.4546 0.545384C23.1534 0.244177 22.6651 0.244177 22.3638 0.545384L12 10.9092L1.63615 0.545384C1.33495 0.244177 0.846592 0.244177 0.545384 0.545384C0.244177 0.846592 0.244177 1.33495 0.545384 1.63615L10.9092 12L0.545384 22.3638C0.244177 22.6651 0.244177 23.1534 0.545384 23.4546C0.846592 23.7558 1.33495 23.7558 1.63615 23.4546L12 13.0908L22.3638 23.4546C22.6651 23.7558 23.1534 23.7558 23.4546 23.4546C23.7558 23.1534 23.7558 22.6651 23.4546 22.3638L13.0908 12L23.4546 1.63615Z" fill="white"/>
</svg>
